<?xml version="1.0" standalone="no"?>
<!DOCTYPE svg PUBLIC "-//W3C//DTD SVG 20010904//EN"
 "http://www.w3.org/TR/2001/REC-SVG-20010904/DTD/svg10.dtd">
<svg version="1.0" xmlns="http://www.w3.org/2000/svg"
 width="179.000000pt" height="179.000000pt" viewBox="0 0 179.000000 179.000000"
 preserveAspectRatio="xMidYMid meet">
<metadata>
Created by potrace 1.14, written by Peter Selinger 2001-2017
</metadata>
<g transform="translate(0.000000,179.000000) scale(0.100000,-0.100000)"
fill="#000000" stroke="none">
<path d="M370 1774 c-85 -23 -155 -62 -213 -118 -68 -65 -100 -117 -132 -208
l-24 -73 0 -475 c1 -515 3 -543 57 -639 58 -105 157 -191 269 -234 57 -22 66
-22 568 -22 l510 0 70 29 c141 58 246 169 291 309 23 71 23 77 23 553 0 392
-2 489 -14 528 -48 160 -160 281 -313 339 -55 21 -72 22 -547 24 -410 2 -499
0 -545 -13z"/>
</g>
</svg>
